#!OML:ASF H:\LiuWeirdWalks\Patient Classification 1\Patient 1\Session 1\male.ASF
:FULLY-SPECIFIED
:DEGREES
537
root 0.127091 17.408 14.9694 6.15746 9.5222 -2.17092
lowerback 17.1855 -3.19914 -11.635
upperback -0.411286 -6.47545 1.12428
thorax -8.68314 -2.55788 9.34215
lowerneck -19.0271 1.97141 9.07392
upperneck 17.4083 0.701159 -2.78621
head 8.6242 0.640921 -2.34044
rclavicle 6.55989e-015 -7.95139e-015
rhumerus -51.0151 12.5062 -75.3715
rradius 68.6082
rwrist -6.48367
rhand -17.7897 -0.692837
rfingers 7.12502
rthumb 8.47334 -30.5028
lclavicle 6.55989e-015 -7.95139e-015
lhumerus 7.05532 -19.9348 68.9026
lradius 68.311
lwrist 4.79615
lhand -23.1214 -18.1938
lfingers 7.12502
lthumb 3.32586 11.76
rfemur -61.4291 -10.4049 13.9301
rtibia 64.1741
rfoot 19.2613 -2.98558
rtoes 1.77058
lfemur 0.67765 3.70627 -21.5467
ltibia 32.5589
lfoot -4.87315 14.6213
ltoes 51.8485
538
root 0.171498 17.5269 15.2406 5.94266 9.17692 -2.22923
lowerback 16.7719 -3.27998 -11.4111
upperback -0.5087 -6.48749 1.20166
thorax -8.57023 -2.57997 9.26571
lowerneck -19.5447 2.16808 9.2189
upperneck 17.8692 0.955 -3.1578
head 8.89127 0.737626 -2.46429
rclavicle 7.25564e-014 -1.03368e-014
rhumerus -52.0292 13.6789 -75.1617
rradius 70.1884
rwrist -6.35682
rhand -17.593 -0.484338
rfingers 7.12502
rthumb 8.66312 -30.2866
lclavicle 7.25564e-014 -1.03368e-014
lhumerus 5.57755 -19.7616 68.2533
lradius 68.9462
lwrist 5.15201
lhand -23.0698 -18.0981
lfingers 7.12502
lthumb 3.37573 11.855
rfemur -61.2628 -10.6063 13.876
rtibia 64.8373
rfoot 21.2167 -2.86723
rtoes 3.21684
lfemur 3.13626 2.95475 -21.6246
ltibia 29.6316
lfoot -1.90036 13.4637
ltoes 52.052
539
root 0.216798 17.6562 15.5187 5.67526 8.78155 -2.31161
lowerback 16.3607 -3.31848 -11.192
upperback -0.568556 -6.44145 1.30741
thorax -8.42557 -2.57725 9.21017
lowerneck -20.0606 2.34645 9.31654
upperneck 18.3005 1.19803 -3.51677
head 9.14985 0.824665 -2.5776
rclavicle 1.51076e-014 -1.66979e-014
rhumerus -52.9805 14.7725 -74.9356
rradius 71.5806
rwrist -6.23015
rhand -17.4378 -0.292057
rfingers 7.12502
rthumb 8.81291 -30.088
lclavicle 1.51076e-014 -1.66979e-014
lhumerus 3.98891 -19.5575 67.7702
lradius 69.4735
lwrist 5.48578
lhand -22.9998 -18.0471
lfingers 7.12502
lthumb 3.44326 11.9048
rfemur -60.885 -10.6912 13.8316
rtibia 65.445
rfoot 22.8803 -2.78536
rtoes 4.57158
lfemur 5.55526 2.06003 -21.7474
ltibia 26.771
lfoot 1.6986 12.2576
ltoes 52.3307
540
root 0.262504 17.7947 15.8025 5.36376 8.34931 -2.41529
lowerback 15.9481 -3.31185 -10.9689
upperback -0.602253 -6.33293 1.43773
thorax -8.26224 -2.54625 9.16662
lowerneck -20.518 2.48691 9.34944
upperneck 18.6814 1.41453 -3.86117
head 9.38071 0.893671 -2.67877
rclavicle 2.5842e-014 6.36111e-015
rhumerus -53.8823 15.7578 -74.6963
rradius 72.754
rwrist -6.0842
rhand -17.3255 -0.11932
rfingers 7.12502
rthumb 8.92129 -29.9107
lclavicle 2.5842e-014 6.36111e-015
lhumerus 2.29474 -19.3477 67.4715
lradius 69.8879
lwrist 5.75136
lhand -22.9024 -18.0399
lfingers 7.12502
lthumb 3.53733 11.9105
rfemur -60.2993 -10.6641 13.7911
rtibia 66.0127
rfoot 24.2575 -2.71198
rtoes 5.79614
lfemur 7.78051 1.03787 -21.9166
ltibia 24.2293
lfoot 5.89931 11.1766
ltoes 52.7501
541
root 0.308043 17.9409 16.0906 5.02039 7.90107 -2.54082
lowerback 15.5354 -3.26496 -10.7296
upperback -0.619081 -6.16761 1.58826
thorax -8.09174 -2.48874 9.12584
lowerneck -20.8895 2.57974 9.31128
upperneck 19.0074 1.59576 -4.18894
head 9.57563 0.940766 -2.76727
rclavicle -3.73715e-014 5.56597e-015
rhumerus -54.7375 16.6181 -74.458
rradius 73.6825
rwrist -5.90545
rhand -17.2524 0.0381847
rfingers 7.12502
rthumb 8.99177 -29.7502
lclavicle -3.73715e-014 5.56597e-015
lhumerus 0.512699 -19.1459 67.3511
lradius 70.1866
lwrist 5.91297
lhand -22.7705 -18.0678
lfingers 7.12502
lthumb 3.66473 11.8804
rfemur -59.4881 -10.5359 13.7552
rtibia 66.4584
rfoot 25.4403 -2.63266
rtoes 6.87127
lfemur 9.78719 -0.0781444 -22.1174
ltibia 21.9777
lfoot 10.7947 10.3819
ltoes 53.4292
542
root 0.348209 18.0655 16.3791 4.65762 7.46291 -2.69072
lowerback 15.1319 -3.19429 -10.4671
upperback -0.61966 -5.96793 1.75409
thorax -7.91612 -2.41558 9.08379
lowerneck -21.1916 2.6362 9.22319
upperneck 19.2893 1.75025 -4.50591
head 9.74145 0.971235 -2.84755
rclavicle 6.95746e-015 3.97569e-015
rhumerus -55.5196 17.3616 -74.2499
rradius 74.3457
rwrist -5.69559
rhand -17.2073 0.184258
rfingers 7.12502
rthumb 9.03531 -29.6022
lclavicle 6.95746e-015 3.97569e-015
lhumerus -1.32956 -18.9323 67.3711
lradius 70.3711
lwrist 5.9496
lhand -22.601 -18.1209
lfingers 7.12502
lthumb 3.82842 11.8245
rfemur -58.6153 -10.3242 13.7293
rtibia 66.8609
rfoot 26.5435 -2.54096
rtoes 7.8029
lfemur 11.4669 -1.23471 -22.3124
ltibia 20.2128
lfoot 16.247 10.0421
ltoes 54.4909
